<svg width="13" height="13" viewBox="0 0 13 13" fill="none" xmlns="http://www.w3.org/2000/svg">
<g id="business_center_black_24dp" clip-path="url(#clip0_1_740)">
<path id="Vector" d="M5.75 8.75V8.25H2.255L2.25 10.25C2.25 10.805 2.695 11.25 3.25 11.25H10.25C10.805 11.25 11.25 10.805 11.25 10.25V8.25H7.75V8.75H5.75ZM10.75 4.25H8.745V3.25L7.745 2.25H5.745L4.745 3.25V4.25H2.75C2.2 4.25 1.75 4.7 1.75 5.25V6.75C1.75 7.305 2.195 7.75 2.75 7.75H5.75V6.75H7.75V7.75H10.75C11.3 7.75 11.75 7.3 11.75 6.75V5.25C11.75 4.7 11.3 4.25 10.75 4.25ZM7.75 4.25H5.75V3.25H7.75V4.25Z" fill="#5E718D"/>
</g>
<defs>
<clipPath id="clip0_1_740">
<rect width="12" height="12" fill="white" transform="translate(0.75 0.75)"/>
</clipPath>
</defs>
</svg>
