<svg width="13" height="13" viewBox="0 0 13 13" fill="none" xmlns="http://www.w3.org/2000/svg">
<g id="location_on_FILL1_wght400_GRAD0_opsz48 1">
<path id="Vector" d="M6.75 6.625C6.99167 6.625 7.19792 6.53958 7.36875 6.36875C7.53958 6.19792 7.625 5.99167 7.625 5.75C7.625 5.50833 7.53958 5.30208 7.36875 5.13125C7.19792 4.96042 6.99167 4.875 6.75 4.875C6.50833 4.875 6.30208 4.96042 6.13125 5.13125C5.96042 5.30208 5.875 5.50833 5.875 5.75C5.875 5.99167 5.96042 6.19792 6.13125 6.36875C6.30208 6.53958 6.50833 6.625 6.75 6.625ZM6.7625 11.6C6.70417 11.6 6.65 11.5917 6.6 11.575C6.55 11.5583 6.50417 11.5333 6.4625 11.5C5.22083 10.4083 4.29167 9.39583 3.675 8.4625C3.05833 7.52917 2.75 6.65833 2.75 5.85C2.75 4.6 3.15208 3.60417 3.95625 2.8625C4.76042 2.12083 5.69167 1.75 6.75 1.75C7.80833 1.75 8.73958 2.12083 9.54375 2.8625C10.3479 3.60417 10.75 4.6 10.75 5.85C10.75 6.65833 10.4417 7.52917 9.825 8.4625C9.20833 9.39583 8.27917 10.4083 7.0375 11.5C6.99583 11.5333 6.95208 11.5583 6.90625 11.575C6.86042 11.5917 6.8125 11.6 6.7625 11.6Z" fill="#5E718D"/>
</g>
</svg>
