<svg width="13" height="13" viewBox="0 0 13 13" fill="none" xmlns="http://www.w3.org/2000/svg">
<g id="mail_FILL1_wght400_GRAD0_opsz48 1">
<path id="Vector" d="M2.25 10.75C2.05 10.75 1.875 10.675 1.725 10.525C1.575 10.375 1.5 10.2 1.5 10V3.5C1.5 3.3 1.575 3.125 1.725 2.975C1.875 2.825 2.05 2.75 2.25 2.75H10.75C10.95 2.75 11.125 2.825 11.275 2.975C11.425 3.125 11.5 3.3 11.5 3.5V10C11.5 10.2 11.425 10.375 11.275 10.525C11.125 10.675 10.95 10.75 10.75 10.75H2.25ZM6.5 6.9C6.54167 6.9 6.57708 6.89375 6.60625 6.88125C6.63542 6.86875 6.66667 6.85417 6.7 6.8375L10.625 4.275C10.6667 4.25 10.6979 4.21667 10.7188 4.175C10.7396 4.13333 10.75 4.0875 10.75 4.0375C10.75 3.92917 10.7021 3.84375 10.6062 3.78125C10.5104 3.71875 10.4125 3.72083 10.3125 3.7875L6.5 6.225L2.7 3.7875C2.6 3.72083 2.5 3.71667 2.4 3.775C2.3 3.83333 2.25 3.91667 2.25 4.025C2.25 4.075 2.2625 4.12292 2.2875 4.16875C2.3125 4.21458 2.34167 4.25 2.375 4.275L6.3 6.8375C6.33333 6.85417 6.36458 6.86875 6.39375 6.88125C6.42292 6.89375 6.45833 6.9 6.5 6.9Z" fill="#5E718D"/>
</g>
</svg>
