<svg width="12" height="13" viewBox="0 0 12 13" fill="none" xmlns="http://www.w3.org/2000/svg">
<g id="call_FILL1_wght400_GRAD0_opsz48 1">
<path id="Vector" d="M9.9375 11.25C8.92083 11.25 7.91042 11 6.90625 10.5C5.90208 10 5 9.35 4.2 8.55C3.4 7.75 2.75 6.84792 2.25 5.84375C1.75 4.83958 1.5 3.82917 1.5 2.8125C1.5 2.65417 1.55417 2.52083 1.6625 2.4125C1.77083 2.30417 1.90417 2.25 2.0625 2.25H3.8125C3.92917 2.25 4.03125 2.28958 4.11875 2.36875C4.20625 2.44792 4.2625 2.55417 4.2875 2.6875L4.625 4.2625C4.64167 4.37917 4.63958 4.48542 4.61875 4.58125C4.59792 4.67708 4.55417 4.75833 4.4875 4.825L3.2375 6.0875C3.70417 6.8625 4.22708 7.5375 4.80625 8.1125C5.38542 8.6875 6.04167 9.175 6.775 9.575L7.9625 8.35C8.04583 8.25833 8.14167 8.19375 8.25 8.15625C8.35833 8.11875 8.46667 8.1125 8.575 8.1375L10.0625 8.4625C10.1875 8.4875 10.2917 8.55 10.375 8.65C10.4583 8.75 10.5 8.86667 10.5 9V10.6875C10.5 10.8458 10.4458 10.9792 10.3375 11.0875C10.2292 11.1958 10.0958 11.25 9.9375 11.25Z" fill="#5E718D"/>
</g>
</svg>
