<svg width="13" height="13" viewBox="0 0 13 13" fill="none" xmlns="http://www.w3.org/2000/svg">
<g id="account_balance_wallet_black_24dp" clip-path="url(#clip0_1_745)">
<path id="Vector" d="M11.25 9.75V10.25C11.25 10.8 10.8 11.25 10.25 11.25H3.25C2.695 11.25 2.25 10.8 2.25 10.25V3.25C2.25 2.7 2.695 2.25 3.25 2.25H10.25C10.8 2.25 11.25 2.7 11.25 3.25V3.75H6.75C6.195 3.75 5.75 4.2 5.75 4.75V8.75C5.75 9.3 6.195 9.75 6.75 9.75H11.25ZM6.75 8.75H11.75V4.75H6.75V8.75ZM8.75 7.5C8.335 7.5 8 7.165 8 6.75C8 6.335 8.335 6 8.75 6C9.165 6 9.5 6.335 9.5 6.75C9.5 7.165 9.165 7.5 8.75 7.5Z" fill="#5E718D"/>
</g>
<defs>
<clipPath id="clip0_1_745">
<rect width="12" height="12" fill="white" transform="translate(0.75 0.75)"/>
</clipPath>
</defs>
</svg>
