<svg width="8" height="8" viewBox="0 0 8 8" fill="none" xmlns="http://www.w3.org/2000/svg">
<g id="add_FILL0_wght400_GRAD0_opsz48 1">
<path id="Vector" d="M4.00112 6.32059C3.92152 6.32059 3.85571 6.29457 3.80367 6.24253C3.75163 6.19049 3.72561 6.12467 3.72561 6.04508V4.02467H1.7052C1.62561 4.02467 1.55979 3.99865 1.50775 3.94661C1.45571 3.89457 1.42969 3.82875 1.42969 3.74916C1.42969 3.66957 1.45571 3.60375 1.50775 3.55171C1.55979 3.49967 1.62561 3.47365 1.7052 3.47365H3.72561V1.45324C3.72561 1.37365 3.75163 1.30784 3.80367 1.2558C3.85571 1.20375 3.92152 1.17773 4.00112 1.17773C4.08071 1.17773 4.14652 1.20375 4.19857 1.2558C4.25061 1.30784 4.27663 1.37365 4.27663 1.45324V3.47365H6.29703C6.37663 3.47365 6.44244 3.49967 6.49448 3.55171C6.54652 3.60375 6.57254 3.66957 6.57254 3.74916C6.57254 3.82875 6.54652 3.89457 6.49448 3.94661C6.44244 3.99865 6.37663 4.02467 6.29703 4.02467H4.27663V6.04508C4.27663 6.12467 4.25061 6.19049 4.19857 6.24253C4.14652 6.29457 4.08071 6.32059 4.00112 6.32059Z" fill="white"/>
</g>
</svg>
