<svg width="9" height="10" viewBox="0 0 9 10" fill="none" xmlns="http://www.w3.org/2000/svg">
<g id="link_black_24dp 1" clip-path="url(#clip0_1_593)">
<g id="Group">
<g id="Group_2">
<path id="Vector" d="M6.375 2.875H5.25C5.04375 2.875 4.875 3.04375 4.875 3.25C4.875 3.45625 5.04375 3.625 5.25 3.625H6.375C6.99375 3.625 7.5 4.13125 7.5 4.75C7.5 5.36875 6.99375 5.875 6.375 5.875H5.25C5.04375 5.875 4.875 6.04375 4.875 6.25C4.875 6.45625 5.04375 6.625 5.25 6.625H6.375C7.41 6.625 8.25 5.785 8.25 4.75C8.25 3.715 7.41 2.875 6.375 2.875ZM3 4.75C3 4.95625 3.16875 5.125 3.375 5.125H5.625C5.83125 5.125 6 4.95625 6 4.75C6 4.54375 5.83125 4.375 5.625 4.375H3.375C3.16875 4.375 3 4.54375 3 4.75ZM3.75 5.875H2.625C2.00625 5.875 1.5 5.36875 1.5 4.75C1.5 4.13125 2.00625 3.625 2.625 3.625H3.75C3.95625 3.625 4.125 3.45625 4.125 3.25C4.125 3.04375 3.95625 2.875 3.75 2.875H2.625C1.59 2.875 0.75 3.715 0.75 4.75C0.75 5.785 1.59 6.625 2.625 6.625H3.75C3.95625 6.625 4.125 6.45625 4.125 6.25C4.125 6.04375 3.95625 5.875 3.75 5.875Z" fill="white"/>
</g>
</g>
</g>
<defs>
<clipPath id="clip0_1_593">
<rect width="9" height="9" fill="white" transform="translate(0 0.25)"/>
</clipPath>
</defs>
</svg>
